<?xml version="1.0" encoding="utf-8"?>
<!-- Generator: Adobe Illustrator 21.1.0, SVG Export Plug-In . SVG Version: 6.00 Build 0)  -->
<svg version="1.1" id="Layer_1" xmlns="http://www.w3.org/2000/svg" xmlns:xlink="http://www.w3.org/1999/xlink" x="0px" y="0px"
	 viewBox="0 0 160.7 48.8" style="enable-background:new 0 0 160.7 48.8;" xml:space="preserve" width="186" height="57">
<style type="text/css">
	.st0{fill:#FFFFFF;}
</style>
<g>
	<path class="st0" d="M157.5,38.2h0.5l0.8,1.3h0.6l-0.9-1.3c0.4-0.1,0.8-0.3,0.8-0.8c0-0.6-0.4-0.9-1.1-0.9H157v3h0.5V38.2z
		 M157.5,36.8h0.6c0.3,0,0.7,0,0.7,0.4c0,0.4-0.3,0.5-0.7,0.5h-0.6V36.8z"/>
	<path class="st0" d="M158,40.6c1.4,0,2.7-1.1,2.7-2.7s-1.3-2.7-2.7-2.7c-1.4,0-2.7,1.1-2.7,2.7C155.3,39.4,156.5,40.6,158,40.6z
		 M158,35.6c1.2,0,2.1,0.9,2.1,2.3c0,1.3-0.9,2.3-2.1,2.3c-1.3,0-2.1-1-2.1-2.3C155.9,36.5,156.9,35.6,158,35.6z"/>
	<path class="st0" d="M44.9,40.7c7.3,1.3,9.3-5.1,9.4-6.2c0,0-4.2,6.9-7.9,3c-1-1-0.4-4.4-0.4-4.4s6.4-1.3,8.3-3.5
		c1.9-2.2,2.5-3.7,2.5-5.1c0-1.4-1.3-2.9-3.1-3.1c-9.2-0.8-13.5,9.1-13.1,13.6C41.1,39.4,43.5,40.4,44.9,40.7z M49.1,24
		c1.6-1.6,3.5-2.3,3.5,0.2c0.1,5.6-6.5,7-6.5,7S47.5,25.6,49.1,24z"/>
	<path class="st0" d="M113.1,31c0,0-2.5,6,0.3,8.5c2.6,2.4,5.7,0.5,7.1-0.2c1.4-0.7,2.6-3,2.6-3s-0.5,3.1,1,3.8
		c2.6,1.2,5.6-0.9,6.5-2.2c0.9-1.3,1.6-3.6,1.6-3.6H132c0,0-2.1,3.1-3.2,3.5c-1.1,0.4-0.7-1.3-0.7-2.3c0-1,3.8-14.3,3.8-14.3
		l-4.4,0.1l-0.8,1.8c0,0,0.1-0.3-0.5-1.1c-0.5-0.9-1.6-1.4-3.3-1.1C116.3,21.8,113.1,31,113.1,31z M123.5,22.8c0,0,2.7-0.6,2.1,2.8
		c-0.6,3.3-1.4,7.1-3.2,9.3c-1.1,1.4-2.5,2.5-3.6,2.5c-0.9,0-1.9-1.7-1.3-3.9C120.9,22.8,123.5,22.8,123.5,22.8z"/>
	<path class="st0" d="M147,40.6c5.7,0.2,6.4-6.2,6.4-6.2s-1.7,2.6-2.8,3.1c-1,0.5-1.4-0.3-1.2-1.6c0.2-0.8,5.5-20.4,5.6-21.3
		c0.4-3.2-3.2-3.7-5.2-2.4c-1.3,0.9-2,2.7-2,2.7s2.3-1.7,2.2-0.5c-0.1,1.3-5.6,21.8-5.6,21.8S143.4,40.5,147,40.6z"/>
	<path class="st0" d="M56.5,34.9c0.4,4.5,2.8,5.5,4.3,5.8c7.3,1.3,9.3-5.1,9.4-6.2c0,0-4.2,6.9-7.9,3c-1-1-0.4-4.4-0.4-4.4
		s6.4-1.3,8.3-3.5c1.9-2.2,2.5-3.7,2.5-5.1c0-1.4-1.3-2.9-3.1-3.1C60.4,20.5,56.1,30.4,56.5,34.9z M65,24c1.6-1.6,3.5-2.3,3.5,0.2
		c0.1,5.6-6.5,7-6.5,7S63.3,25.6,65,24z"/>
	<path class="st0" d="M64.8,11.3l-0.6-1.2c0,0-0.7-4.4,3.6-5.7c11.4-3.3,22.9,1.4,24,2.1c0,0-4.7-3.5-7.7-4.6
		C73.1-2.3,65,1.2,63,4.2C59.7,9,64.8,11.3,64.8,11.3z"/>
	<path class="st0" d="M100,14.5l-6.9,24.1c0,0,8.2,6.4,15.5-3.2c7.2-9.4,1.7-15.5-2.5-14.4c-2.3,0.6-4.2,2.6-4.2,2.6
		c2.4-8.6,4.2-13.9,5.4-15.9c0,0,2.4-4,6.6-3.8c4.3,0.2,4.6,3.3,4.4,4.6c-0.3,2.2-2.1,3.2-4.1,3.9c-2,0.7-5.9,0.3-5.9,0.3
		s0,0.4,1,0.8c1,0.4,10.7,2.6,11.5-4c0.5-4.7-2.8-6.2-4.5-6.6C105.6,0.9,101.1,11.2,100,14.5z M105.1,23.9c1.5,0.2,2,2,1.5,4.3
		c-2.1,10-6.1,10.8-6.1,10.8s-3.5,1.6-2.2-3.2c0.9-3.2,1.9-7.3,3.3-9.4C102.7,24.9,104,23.8,105.1,23.9z"/>
	<path class="st0" d="M136,40.6c5.7,0.2,6.4-6.2,6.4-6.2s-1.7,2.6-2.8,3.1c-1,0.5-1.4-0.3-1.2-1.6c0.1-0.8,5.5-20.4,5.6-21.3
		c0.4-3.2-3.2-3.7-5.2-2.4c-1.3,0.9-2,2.7-2,2.7s2.3-1.7,2.2-0.5c-0.1,1.3-5.6,21.8-5.6,21.8S132.3,40.5,136,40.6z"/>
	<path class="st0" d="M72.3,35.4c0.4,6.7,5.1,6.1,8.2,4.1c1.8-1.2,2.5-3.1,2.5-3.1c0,1.2-0.1,2.2,0.1,2.9c0.8,2.6,4.2,1.8,6,0.1
		c2.1-1.9,2.8-4.9,2.8-4.9l-0.5-0.1c0,0-1.4,3.1-2.8,3.3c-1.2,0.2-0.5-2.4-0.5-2.4s2.3-10.5,5-18.6c1.8-4.9,4.7-8,7.6-11
		c2.7-2.8,7.1-3.9,7.1-3.9s-3.7-0.3-9.1,2.4c-8.8,4.3-11.7,16.1-12.2,18.2C80.5,17.6,72.1,28.2,72.3,35.4z M85.6,25.4
		c-1.7,11.8-7.4,13.9-8.1,11.3c-0.7-2.6,1.9-9.5,4.4-12.2C82.3,24,86.3,21.1,85.6,25.4z"/>
	<path class="st0" d="M24.1,25.8c0,0-4.4,18.4-5,20.3c-0.6,1.9-2.1,2.3-2.1,2.3l-0.1,0.5h8.5c-1.8-0.9-1.4-2.6-1.4-2.6l1.4-6.2
		c0,0-0.2,1.7,4.7,0.8c5.6-1,10.3-11.4,9.5-15.4c-0.9-4.6-3.8-4.4-5.8-4.1c-2,0.3-4.7,3.5-4.7,3.5c0.1-1.6,0-3.4-2.4-3.3
		c-2.4,0.1-4.4,3.4-4.4,3.4s0.6-0.3,1.4-0.4C24.6,24.4,24.1,25.8,24.1,25.8z M28.7,27.4c0.8-1.3,2-2.9,3.4-3.2c0.5-0.1,2.7,0,2.1,4
		c-0.7,4.3-3,8.7-3.6,9.4c-0.6,0.6-2.2,3.1-4.9,1.5C25.6,39.1,27.9,28.7,28.7,27.4z"/>
	<path class="st0" d="M11,41.4c7-0.7,8.4-6.8,8.4-6.8s1.7-6.9-2.7-10.5c-4.4-3.5-7.2-5.6-7.6-7.6c-0.4-2,0.7-6.5,5.2-6.5
		c4.5,0,4.9,3,5,4c0.1,1.1,0.2,2.7-0.5,3.7c-0.6,1-1,1.2-1,1.2s3.2,0.2,4.1-1.9c0.7-1.6,0.9-5.8-4.3-8.1C12,6.5,0.3,10.9,4.7,21.4
		c1.9,4.6,5.7,4.7,9.4,10.4c0.2,0.3,1.9,6.1-2.9,7.5c-5.2,1.5-7.3-2.5-7.3-2.5s-1.4-2.4-0.1-7c0-0.1-3-0.4-3.7,3.7
		C-0.6,37.6,3.6,42.1,11,41.4z"/>
</g>
</svg>
